<?xml version="1.0" standalone="no"?>
<!DOCTYPE svg PUBLIC "-//W3C//DTD SVG 20010904//EN"
 "http://www.w3.org/TR/2001/REC-SVG-20010904/DTD/svg10.dtd">
<svg version="1.0" xmlns="http://www.w3.org/2000/svg"
 width="260.000000pt" height="260.000000pt" viewBox="0 0 260.000000 260.000000"
 preserveAspectRatio="xMidYMid meet">
<metadata>
Created by potrace 1.14, written by Peter Selinger 2001-2017
</metadata>
<g transform="translate(0.000000,260.000000) scale(0.100000,-0.100000)"
fill="#000000" stroke="none">
<path d="M0 1300 l0 -1300 1300 0 1300 0 0 1300 0 1300 -1300 0 -1300 0 0
-1300z m1106 858 c74 -50 93 -97 94 -230 0 -60 4 -108 9 -108 5 0 78 72 163
160 84 89 172 172 195 185 41 25 44 25 284 25 230 0 244 -1 273 -21 58 -39 71
-67 71 -145 0 -92 24 -62 -371 -467 -96 -98 -174 -181 -174 -185 0 -4 37 -50
81 -102 45 -52 113 -133 152 -180 39 -47 89 -105 111 -130 183 -205 201 -232
201 -320 0 -87 -8 -109 -52 -154 -72 -72 -64 -71 -483 -71 -347 0 -378 1 -410
19 -89 47 -120 117 -120 272 0 63 -4 114 -8 114 -5 0 -88 -83 -186 -184 -97
-102 -191 -192 -209 -201 -18 -9 -57 -19 -88 -22 -104 -10 -206 55 -234 150
-13 43 -15 157 -15 739 0 489 3 703 12 736 14 57 36 88 91 124 l42 28 261 0
262 0 48 -32z"/>
<path d="M1151 1753 c-19 -21 -129 -136 -245 -256 -116 -120 -212 -224 -214
-232 -3 -12 31 -15 215 -17 l218 -3 3 -197 c1 -109 6 -198 10 -198 12 0 492
501 492 513 0 4 -92 7 -205 7 l-205 0 -10 26 c-6 14 -10 108 -10 210 0 101 -3
184 -8 184 -4 0 -23 -17 -41 -37z"/>
</g>
</svg>
